# xmcd
#
# Track frame offsets:
# 150
# 22054
# 67232
# 99265
# 138654
# 160628
# 181460
#
# Disc length: 2698 seconds
#
#
# Revision: 0
# Processed by: cddbd v1.5.2PL0 Copyright (c) Steve Scherf et al.
# Submitted via: FreeRIP 2.945 
#
DISCID=5e0a8807
DTITLE=Parliament - Gloryhallastoopid
DYEAR=1900
DGENRE=Funk
TTITLE0=(Gloryhallastoopid) Pin the Tale On The Funky
TTITLE1=Party People
TTITLE2=The Big Bang Theory
TTITLE3=The Freeze (Sizzaleemean)
TTITLE4=Colour Me Funky
TTITLE5=Theme From The Black Hole
TTITLE6=May We Bang You
EXTD=
EXTT0=
EXTT1=
EXTT2=
EXTT3=
EXTT4=
EXTT5=
EXTT6=
PLAYORDER=
